<?xml version="1.0" encoding="utf-8"?>
<!-- Generator: Adobe Illustrator 24.0.2, SVG Export Plug-In . SVG Version: 6.00 Build 0)  -->
<svg version="1.1" id="Capa_1" xmlns="http://www.w3.org/2000/svg" xmlns:xlink="http://www.w3.org/1999/xlink" x="0px" y="0px"
	 viewBox="0 0 90 90" style="enable-background:new 0 0 90 90;" xml:space="preserve">
<style type="text/css">
	.st0{fill:#2BD2D6;}
</style>
<path class="st0" d="M78.7,16.3L46.1,2.8c-0.8-0.3-1.7-0.3-2.5,0L11,16.3c-1.2,0.5-2,1.7-2,3.1v16.4c0,22.6,13.7,43,34.6,51.5
	c0.8,0.3,1.7,0.3,2.5,0c20.9-8.5,34.6-28.9,34.6-51.5V19.3C80.7,18,79.9,16.8,78.7,16.3z M74.1,35.8c0,19.2-11.3,36.9-29.2,44.8
	c-17.5-7.7-29.2-25.1-29.2-44.8V21.5L44.9,9.4l29.2,12.1V35.8z M41.2,46.9l14.3-14.3c1.3-1.3,3.4-1.3,4.7,0c1.3,1.3,1.3,3.4,0,4.7
	L43.5,54c-1.3,1.3-3.4,1.3-4.7,0l-9.3-9.3c-1.3-1.3-1.3-3.4,0-4.7c1.3-1.3,3.4-1.3,4.7,0L41.2,46.9z"/>
</svg>
