<?xml version="1.0" encoding="utf-8"?>
<!-- Generator: Adobe Illustrator 24.0.2, SVG Export Plug-In . SVG Version: 6.00 Build 0)  -->
<svg version="1.1" id="Capa_1" xmlns="http://www.w3.org/2000/svg" xmlns:xlink="http://www.w3.org/1999/xlink" x="0px" y="0px"
	 viewBox="0 0 90 90" style="enable-background:new 0 0 90 90;" xml:space="preserve">
<style type="text/css">
	.st0{fill:#2BD2D6;}
</style>
<path class="st0" d="M35.2,12.8h-10c-1.4,0-2.5,1.1-2.5,2.5v10c0,1.4,1.1,2.5,2.5,2.5h10c1.4,0,2.5-1.1,2.5-2.5v-10
	C37.7,13.9,36.6,12.8,35.2,12.8z M32.7,22.8h-5v-5h5V22.8z"/>
<path class="st0" d="M45.2,27.7h10c1.4,0,2.5-1.1,2.5-2.5c0-1.4-1.1-2.5-2.5-2.5h-10c-1.4,0-2.5,1.1-2.5,2.5
	C42.7,26.6,43.8,27.7,45.2,27.7z"/>
<path class="st0" d="M45.2,17.8h16.6c1.4,0,2.5-1.1,2.5-2.5s-1.1-2.5-2.5-2.5H45.2c-1.4,0-2.5,1.1-2.5,2.5S43.8,17.8,45.2,17.8z"/>
<path class="st0" d="M35.2,32.7h-10c-1.4,0-2.5,1.1-2.5,2.5v10c0,1.4,1.1,2.5,2.5,2.5h10c1.4,0,2.5-1.1,2.5-2.5v-10
	C37.7,33.8,36.6,32.7,35.2,32.7z M32.7,42.7h-5v-5h5V42.7z"/>
<path class="st0" d="M45.2,37.7h16.6c1.4,0,2.5-1.1,2.5-2.5c0-1.4-1.1-2.5-2.5-2.5H45.2c-1.4,0-2.5,1.1-2.5,2.5
	C42.7,36.6,43.8,37.7,45.2,37.7z"/>
<path class="st0" d="M35.2,52.6h-10c-1.4,0-2.5,1.1-2.5,2.5v10c0,1.4,1.1,2.5,2.5,2.5h10c1.4,0,2.5-1.1,2.5-2.5v-10
	C37.7,53.8,36.6,52.6,35.2,52.6z M32.7,62.6h-5v-5h5V62.6z"/>
<path class="st0" d="M68.3,55.1c-0.9-0.9-2.5-1-3.5-0.1c-1.1,1-1.1,2.6-0.1,3.6l3.5,3.5c1,1,2.5,1,3.5,0l7-7c1-1,1-2.6-0.1-3.6
	c-1-0.9-2.5-0.8-3.5,0.1L70,56.8L68.3,55.1z"/>
<path class="st0" d="M85.9,42.8l-11.7-4.4V5c0-1.4-1.1-2.5-2.5-2.5H15.3c-1.4,0-2.5,1.1-2.5,2.5v7.5H5c-1.4,0-2.5,1.1-2.5,2.5V85
	c0,1.4,1.1,2.5,2.5,2.5h56.4c1.4,0,2.5-1.1,2.5-2.5v-7.5h3.7c1,0.6,2.1,1.1,3.2,1.5c0.3,0.1,0.6,0.2,0.9,0.2c0.3,0,0.6-0.1,0.9-0.2
	c4.4-1.6,8.1-4.6,10.8-8.4c2.7-3.9,4.1-8.4,4.1-13.1V45.2C87.5,44.1,86.9,43.2,85.9,42.8z M58.9,82.5H7.5V17.4h5.3V75
	c0,1.4,1.1,2.5,2.5,2.5h43.7V82.5z M17.8,72.6V7.5h51.5v31L58,42.7H45.2c-1.4,0-2.5,1.1-2.5,2.5s1.1,2.5,2.5,2.5H56v5H45.2
	c-1.4,0-2.5,1.1-2.5,2.5c0,1.4,1.1,2.5,2.5,2.5H56c0,1.7,0.2,3.4,0.6,5H45.2c-1.4,0-2.5,1.1-2.5,2.5s1.1,2.5,2.5,2.5h13.1
	c0.5,1.1,1.1,2.1,1.8,3c0.5,0.7,1,1.3,1.5,1.9H17.8z M82.5,57.5c0,7.1-4.3,13.6-10.8,16.5c-6.5-2.8-10.8-9.3-10.8-16.5V46.9l10.8-4
	l10.8,4V57.5z"/>
</svg>
