<?xml version="1.0" encoding="utf-8"?>
<!-- Generator: Adobe Illustrator 24.0.2, SVG Export Plug-In . SVG Version: 6.00 Build 0)  -->
<svg version="1.1" id="Capa_1" xmlns="http://www.w3.org/2000/svg" xmlns:xlink="http://www.w3.org/1999/xlink" x="0px" y="0px"
	 viewBox="0 0 141.7 141.7" style="enable-background:new 0 0 141.7 141.7;" xml:space="preserve">
<style type="text/css">
	.st0{fill:#FFFFFF;}
</style>
<path class="st0" d="M70.4,141.2c-38.8,0-70.2-31.8-70.2-70.6C0.2,31.5,31.8,0,70.4,0s70.2,31.8,70.2,70.6S109,141.2,70.4,141.2z
	 M93.9,41.9c-2.8,0-5.2,2.3-5.2,5.2s2.3,5.2,5.2,5.2c2.8,0,5.2-2.3,5.2-5.2C99.1,44,96.8,41.9,93.9,41.9z M70.9,48.4
	c-11.9,0-21.8,9.9-21.8,21.9S59,92.2,70.9,92.2s21.8-9.9,21.8-21.9S82.8,48.4,70.9,48.4z M70.9,84.6c-7.8,0-14-6.3-14-14.1
	s6.2-14.1,14-14.1s14,6.3,14,14.1C84.9,78.1,78.7,84.6,70.9,84.6z M114.9,52.1c0-14.9-11.9-26.8-26.7-26.8h-35
	c-14.8,0-26.7,12-26.7,26.8v35.4c0,14.9,11.9,26.8,26.7,26.8h35.2c14.8,0,26.7-12,26.7-26.8V52.1H114.9z M106.6,87.5
	c0,10.2-8.3,18.5-18.4,18.5h-35c-10.1,0-18.4-8.3-18.4-18.5V52.1c0-10.2,8.3-18.5,18.4-18.5h35.2c10.1,0,18.4,8.3,18.4,18.5v35.4
	H106.6z"/>
</svg>
