<?xml version="1.0" encoding="utf-8"?>
<!-- Generator: Adobe Illustrator 24.0.2, SVG Export Plug-In . SVG Version: 6.00 Build 0)  -->
<svg version="1.1" id="Capa_1" xmlns="http://www.w3.org/2000/svg" xmlns:xlink="http://www.w3.org/1999/xlink" x="0px" y="0px"
	 viewBox="0 0 141.7 141.7" style="enable-background:new 0 0 141.7 141.7;" xml:space="preserve">
<style type="text/css">
	.st0{fill:#FFFFFF;}
</style>
<path class="st0" d="M70.6,1.1C32.3,1.3,1.2,32.9,1.5,71.4s31.6,69.8,69.9,69.5c38.2-0.3,69.4-31.8,69.1-70.3S109.1,0.8,70.6,1.1z
	 M45.1,33.1c4.6,0,8.4,3.8,8.4,8.5s-3.8,8.5-8.4,8.5s-8.4-3.8-8.4-8.5S40.5,33.1,45.1,33.1z M52.7,103.7H39.5
	c-0.8,0-1.3-0.5-1.3-1.3l-0.3-45.2c0-0.8,0.5-1.3,1.3-1.3h13.3c0.8,0,1.3,0.5,1.3,1.3l0.3,45.2C53.7,103.2,53.2,103.7,52.7,103.7z
	 M109.3,103.5H95.8c-0.8,0-1.3-0.5-1.3-1.3V77.8c0-6.4-2.3-10.8-7.9-10.8c-4.3,0-6.9,3.1-7.9,5.9c-0.5,1-0.5,2.3-0.5,3.8v25.4
	c0,0.8-0.5,1.3-1.3,1.3H63.4c-0.8,0-1.3-0.5-1.3-1.3c0-6.4,0-37.7-0.3-45.2c0-0.8,0.5-1.3,1.3-1.3h13.3c0.8,0,1.3,0.5,1.3,1.3v5.6
	c2-3.3,5.9-8,14-8c10.5,0,18.1,6.7,18.1,21.3V102C110.3,102.9,109.8,103.5,109.3,103.5z"/>
</svg>
