<?xml version="1.0" encoding="utf-8"?>
<!-- Generator: Adobe Illustrator 24.0.2, SVG Export Plug-In . SVG Version: 6.00 Build 0)  -->
<svg version="1.1" id="Capa_1" xmlns="http://www.w3.org/2000/svg" xmlns:xlink="http://www.w3.org/1999/xlink" x="0px" y="0px"
	 viewBox="0 0 141.7 141.7" style="enable-background:new 0 0 141.7 141.7;" xml:space="preserve">
<style type="text/css">
	.st0{fill:#FFFFFF;}
</style>
<path class="st0" d="M64.9,59.4c-0.8-0.5-1.5,0-1.5,1v21c0,1,0.8,1.6,1.5,1L83.4,72c0.8-0.5,1-1.6,0.3-2.1L64.9,59.4z"/>
<path class="st0" d="M71.1,0.6C32.7,0.6,1.3,31.9,1.3,70.8c0,38.6,31.2,70.2,69.8,70.2c38.3,0,69.8-31.4,69.8-70.2
	C140.8,32.2,109.4,0.6,71.1,0.6z M112.7,82.1c0,10-7.9,18-17.9,18H48.3c-10,0-17.9-8-17.9-18V60.2c0-10,7.9-18,17.9-18h46.5
	c10,0,17.9,8,17.9,18C112.7,60.2,112.7,82.1,112.7,82.1z"/>
</svg>
