<?xml version="1.0" encoding="utf-8"?>
<!-- Generator: Adobe Illustrator 24.0.2, SVG Export Plug-In . SVG Version: 6.00 Build 0)  -->
<svg version="1.1" id="Capa_1" xmlns="http://www.w3.org/2000/svg" xmlns:xlink="http://www.w3.org/1999/xlink" x="0px" y="0px"
	 viewBox="0 0 40 40" style="enable-background:new 0 0 40 40;" xml:space="preserve">
<style type="text/css">
	.st0{fill-rule:evenodd;clip-rule:evenodd;fill:#8010AC;}
</style>
<path class="st0" d="M20,1C9.4,1,0.9,9.6,0.9,20c0,10.4,8.5,19,19.1,19c10.5,0,19.1-8.5,19.1-19C39.1,9.6,30.5,1,20,1z M25.3,12.3
	c0,0.1-0.1,0.3-0.3,0.3h-2.3c-0.6,0-1.1,0.5-1.1,1V16H25c0.1,0,0.3,0.1,0.3,0.3L25,19.6c0,0.1-0.1,0.3-0.3,0.3h-3v11.2
	c0,0.1-0.1,0.3-0.3,0.3h-4.1c-0.1,0-0.3-0.1-0.3-0.3v-11v-0.2h-2c-0.1,0-0.3-0.1-0.3-0.3v-3.3c0-0.1,0.1-0.3,0.3-0.3h2v-3.3
	c0-2.3,1.8-4.1,4.1-4.1H25c0.1,0,0.3,0.1,0.3,0.3L25.3,12.3L25.3,12.3z"/>
</svg>
