<?xml version="1.0" encoding="utf-8"?>
<!-- Generator: Adobe Illustrator 24.0.2, SVG Export Plug-In . SVG Version: 6.00 Build 0)  -->
<svg version="1.1" id="Capa_1" xmlns="http://www.w3.org/2000/svg" xmlns:xlink="http://www.w3.org/1999/xlink" x="0px" y="0px"
	 viewBox="0 0 40 40" style="enable-background:new 0 0 40 40;" xml:space="preserve">
<style type="text/css">
	.st0{fill:#8010AC;}
</style>
<path class="st0" d="M20,16.2c-2.1,0-3.8,1.7-3.8,3.8s1.7,3.8,3.8,3.8c2.1,0,3.8-1.7,3.8-3.8S22.1,16.2,20,16.2z"/>
<path class="st0" d="M24.8,10.3h-9.5c-2.7,0-5,2.2-5,4.9v9.5c0,2.7,2.2,4.9,5,4.9h9.5c2.7,0,5-2.2,5-4.9v-9.5
	C29.7,12.6,27.5,10.3,24.8,10.3z M20.1,26c-3.2,0-5.9-2.6-5.9-5.8c0-3.2,2.7-5.8,5.9-5.8s5.9,2.6,5.9,5.8C26,23.3,23.4,26,20.1,26z
	 M26.3,15.3c-0.8,0-1.4-0.6-1.4-1.4c0-0.8,0.6-1.4,1.4-1.4s1.4,0.6,1.4,1.4C27.7,14.6,27.1,15.3,26.3,15.3z"/>
<path class="st0" d="M20,1.2C9.5,1.2,1,9.6,1,20c0,10.4,8.5,18.8,19,18.8c10.4,0,19-8.5,19-18.8C39,9.6,30.4,1.2,20,1.2z M32,24.6
	c0,4-3.2,7.2-7.2,7.2h-9.5c-4,0-7.2-3.2-7.2-7.2v-9.5c0-4,3.2-7.2,7.2-7.2h9.5c4,0,7.2,3.2,7.2,7.2V24.6z"/>
</svg>
