<?xml version="1.0" encoding="utf-8"?>
<!-- Generator: Adobe Illustrator 24.0.2, SVG Export Plug-In . SVG Version: 6.00 Build 0)  -->
<svg version="1.1" id="Capa_1" xmlns="http://www.w3.org/2000/svg" xmlns:xlink="http://www.w3.org/1999/xlink" x="0px" y="0px"
	 viewBox="0 0 551.7 107.4" style="enable-background:new 0 0 551.7 107.4;" xml:space="preserve">
<style type="text/css">
	.st0{fill:#8010AC;}
	.st1{fill:#FFFFFF;}
	.st2{fill:#FDFDFD;}
</style>
<path class="st0" d="M262.2,4.4H3v90.4h259.2V4.4z"/>
<path class="st1" d="M112.9,13.9L90.3,87.3H74.9L61.1,41.8c-0.3-0.7-0.5-1.5-0.7-2.4c-0.2-0.9-0.5-1.7-0.7-2.7
	c-0.2,0.9-0.5,1.8-0.7,2.7c-0.2,0.9-0.5,1.6-0.7,2.4l-14,45.5H28.8L6.1,13.9h14.3c1.5,0,2.7,0.3,3.7,1c1,0.7,1.6,1.5,2,2.7
	l10.1,38.3c0.3,1.2,0.6,2.6,0.9,4c0.3,1.4,0.6,2.9,0.9,4.4c0.6-3.2,1.3-6,2.2-8.4L52,17.6c0.3-0.9,0.9-1.8,2-2.6
	c1-0.7,2.2-1.1,3.6-1.1h5c1.5,0,2.7,0.3,3.6,1c0.9,0.7,1.6,1.5,2.1,2.6l11.8,38.3c0.9,2.4,1.6,5,2.2,8c0.3-1.5,0.5-3,0.8-4.2
	c0.3-1.3,0.6-2.6,0.9-3.8l10.1-38.3c0.3-0.9,0.9-1.8,1.9-2.6c1-0.7,2.2-1.1,3.6-1.1H112.9z"/>
<path class="st1" d="M136,34.3c4,0,7.6,0.6,10.8,1.9c3.2,1.2,6.1,3,8.4,5.3c2.4,2.3,4.2,5.1,5.4,8.4c1.3,3.3,2,7,2,11.2
	c0,4.2-0.7,7.9-2,11.2c-1.3,3.4-3.1,6.2-5.4,8.5c-2.4,2.4-5.1,4.1-8.4,5.4c-3.2,1.3-6.9,1.9-10.8,1.9c-4,0-7.6-0.6-10.9-1.9
	c-3.3-1.3-6.1-3-8.5-5.4c-2.4-2.4-4.2-5.2-5.5-8.5c-1.3-3.4-2-7.1-2-11.2c0-4.1,0.7-7.9,2-11.2c1.3-3.3,3.1-6.1,5.5-8.4
	c2.4-2.3,5.2-4.1,8.5-5.3C128.3,34.9,131.9,34.3,136,34.3z M136,76.5c3.6,0,6.3-1.3,7.9-3.8c1.7-2.6,2.6-6.4,2.6-11.6
	c0-5.2-0.9-9-2.6-11.5c-1.7-2.5-4.4-3.8-7.9-3.8c-3.7,0-6.4,1.3-8.1,3.8c-1.7,2.5-2.6,6.4-2.6,11.5c0,5.2,0.9,9,2.6,11.6
	C129.6,75.3,132.3,76.5,136,76.5z"/>
<path class="st1" d="M185,43.2c1.6-2.8,3.5-5,5.6-6.7c2.1-1.6,4.5-2.4,7.2-2.4c2.4,0,4.2,0.5,5.7,1.7l-1,11.5
	c-0.1,0.7-0.5,1.2-0.8,1.5c-0.4,0.3-0.9,0.4-1.6,0.4c-0.3,0-0.6,0-1.1-0.1c-0.4,0-0.9-0.1-1.3-0.1c-0.5-0.1-0.9-0.1-1.4-0.1
	c-0.5-0.1-0.9-0.1-1.3-0.1c-2.3,0-4.1,0.6-5.4,1.8c-1.3,1.2-2.5,2.9-3.4,5v31.8h-15.6V35.1h9.3c0.7,0,1.4,0.1,2,0.2
	c0.5,0.1,0.9,0.3,1.3,0.6c0.3,0.3,0.6,0.7,0.8,1.1c0.2,0.5,0.3,1,0.5,1.7L185,43.2z"/>
<path class="st1" d="M224.4,12v42.3h2.3c0.9,0,1.7-0.1,2.2-0.4c0.5-0.3,1-0.7,1.5-1.4l9.9-14.7c0.6-0.8,1.3-1.5,2.1-1.9
	c0.7-0.4,1.7-0.6,3-0.6h14.3l-13.5,18.6c-1.3,1.7-2.8,3-4.5,4.1c0.7,0.5,1.5,1.2,2.1,2c0.6,0.7,1.2,1.6,1.8,2.6l14.7,25h-14.1
	c-1.1,0-2.2-0.2-3-0.6c-0.8-0.4-1.5-1.1-2.1-2l-9.9-18.5c-0.5-0.8-0.9-1.4-1.5-1.6c-0.5-0.3-1.3-0.4-2.3-0.4h-3v23.1h-15.6V12H224.4
	z"/>
<path class="st2" d="M266.6,44.3c2.6-2.6,5.4-4.6,8.3-5.9c2.9-1.3,6.2-2,9.8-2c2.7,0,5,0.4,7.1,1.3c2,0.9,3.7,2.1,5,3.7
	c1.3,1.6,2.4,3.5,3,5.8c0.7,2.3,1,4.8,1,7.6v32.6h-1.9c-1,0-1.6-0.5-1.9-1.4l-0.7-6.5c-1.3,1.3-2.8,2.6-4.1,3.6
	c-1.3,1.1-2.8,2-4.2,2.7c-1.5,0.7-3.1,1.3-4.8,1.7s-3.6,0.6-5.7,0.6c-1.7,0-3.4-0.3-5-0.7c-1.6-0.5-3-1.3-4.3-2.3
	c-1.3-1-2.3-2.4-3-4c-0.7-1.6-1.1-3.6-1.1-5.9c0-2.1,0.6-4.1,1.8-5.9c1.2-1.8,3.1-3.4,5.7-4.7c2.6-1.3,5.9-2.4,10-3.2
	c4-0.8,8.9-1.3,14.6-1.4v-5.2c0-4.6-1-8.2-3-10.7c-2-2.5-5-3.8-8.9-3.8c-2.4,0-4.5,0.3-6.2,1c-1.7,0.7-3.2,1.4-4.3,2.2
	c-1.1,0.8-2.2,1.5-2.9,2.2c-0.7,0.7-1.3,1-1.9,1c-0.3,0-0.7-0.1-0.9-0.3c-0.2-0.1-0.4-0.4-0.6-0.7L266.6,44.3z M296.1,63.1
	c-4.8,0.2-8.9,0.5-12.3,1.1c-3.4,0.6-6.3,1.4-8.5,2.4c-2.2,1-3.9,2.2-5,3.6c-1.1,1.4-1.6,3-1.6,4.8c0,1.7,0.3,3.2,0.8,4.4
	c0.5,1.2,1.3,2.2,2.2,3c0.9,0.8,2,1.3,3.2,1.7c1.2,0.3,2.5,0.5,3.8,0.5c2,0,3.8-0.2,5.4-0.6c1.6-0.4,3.2-1,4.5-1.7
	c1.4-0.7,2.7-1.7,3.9-2.7s2.4-2.2,3.6-3.4L296.1,63.1L296.1,63.1z"/>
<path class="st2" d="M321.4,46c2.3-2.9,5-5.2,8-6.9c3-1.7,6.4-2.6,10.2-2.6c2.8,0,5.2,0.4,7.3,1.3c2.1,0.9,3.8,2.2,5.2,3.8
	c1.3,1.6,2.4,3.6,3.1,5.9c0.7,2.3,1.1,4.9,1.1,7.9v32h-4.8v-32c0-4.7-1.1-8.4-3.2-11c-2.2-2.7-5.5-4-9.8-4c-3.2,0-6.3,0.8-9.1,2.5
	c-2.8,1.7-5.4,4-7.6,6.9v37.7h-4.8V37.2h2.7c0.8,0,1.3,0.4,1.5,1.3L321.4,46z"/>
<path class="st2" d="M411.1,14v73.3h-2.6c-0.9,0-1.3-0.4-1.5-1.3l-0.5-7.9c-2.2,3-4.8,5.4-7.7,7.2c-3,1.7-6.3,2.7-10,2.7
	c-6.2,0-11-2.2-14.4-6.4c-3.4-4.2-5.1-10.6-5.1-19.2c0-3.6,0.5-7.1,1.4-10.2c0.9-3.2,2.4-5.9,4.2-8.3c1.8-2.4,4.1-4.2,6.8-5.5
	c2.7-1.3,5.8-2,9.4-2c3.4,0,6.3,0.6,8.8,1.9c2.5,1.2,4.6,3.1,6.5,5.5V14H411.1z M406.4,48c-1.9-2.9-4-4.9-6.4-6.1
	c-2.4-1.1-5-1.7-8-1.7c-3,0-5.5,0.5-7.7,1.6c-2.2,1.1-4.1,2.6-5.6,4.6c-1.5,2-2.6,4.3-3.4,7.1c-0.7,2.8-1.1,5.7-1.1,9
	c0,7.5,1.3,12.9,4.1,16.4c2.8,3.5,6.7,5.2,11.8,5.2c3.3,0,6.3-0.9,9-2.6c2.7-1.7,5.1-4.1,7.2-7.2L406.4,48L406.4,48z"/>
<path class="st2" d="M432.5,45.9c2.2-3,4.7-5.2,7.7-7c2.9-1.7,6.3-2.6,10.2-2.6c3,0,5.7,0.5,8.1,1.7c2.4,1.1,4.4,2.7,6.1,4.8
	c1.7,2.1,3,4.6,3.8,7.7c0.9,3,1.3,6.5,1.3,10.4c0,4-0.5,7.7-1.5,11.1c-0.9,3.4-2.4,6.2-4.2,8.5c-1.9,2.4-4.2,4.2-6.8,5.5
	c-2.6,1.3-5.8,2-9.2,2c-3.6,0-6.6-0.7-9.1-2c-2.5-1.3-4.6-3.4-6.5-6.1l-0.3,6.2c-0.1,0.8-0.5,1.3-1.3,1.3h-2.9V14h4.8v31.9H432.5z
	 M432.5,76.4c2,2.9,4.1,4.9,6.4,6.1c2.4,1.1,5,1.7,7.9,1.7c3,0,5.6-0.5,7.8-1.6c2.2-1.1,4.1-2.6,5.6-4.6c1.5-2,2.6-4.4,3.4-7.3
	c0.7-2.8,1.1-6.1,1.1-9.6c0-6.9-1.3-12.1-4.1-15.6c-2.8-3.5-6.6-5.2-11.6-5.2c-3.6,0-6.7,0.9-9.3,2.6c-2.6,1.7-5,4.1-7.1,7.1V76.4z"
	/>
<path class="st2" d="M522.5,37.2l-28.8,66.2c-0.2,0.5-0.5,0.9-0.8,1.1c-0.3,0.3-0.8,0.5-1.4,0.5h-3.4l8.8-19.6l-21.2-48.2h4
	c0.5,0,0.9,0.1,1.2,0.4c0.3,0.3,0.5,0.5,0.6,0.8l16.9,39c0.2,0.5,0.4,1,0.5,1.5c0.1,0.5,0.3,1.1,0.4,1.6c0.1-0.5,0.3-1.1,0.5-1.6
	s0.4-1,0.6-1.5l16.7-39c0.1-0.3,0.4-0.7,0.7-0.9c0.3-0.2,0.6-0.3,1-0.3H522.5z"/>
<path class="st2" d="M537.8,19.6c0.9,0,1.7,0.1,2.5,0.3c0.8,0.2,1.5,0.5,2.2,0.9c0.7,0.4,1.3,0.9,1.9,1.5c0.5,0.5,1.1,1.2,1.5,1.9
	c0.4,0.7,0.7,1.4,0.9,2.2c0.2,0.8,0.3,1.6,0.3,2.5s-0.1,1.7-0.3,2.5c-0.2,0.8-0.5,1.5-0.9,2.2c-0.4,0.7-0.9,1.3-1.5,1.9
	c-0.5,0.5-1.2,1.1-1.9,1.5c-0.7,0.4-1.4,0.7-2.2,0.9c-0.8,0.2-1.6,0.3-2.5,0.3c-0.9,0-1.7-0.1-2.5-0.3c-0.8-0.2-1.5-0.5-2.2-0.9
	c-0.7-0.4-1.3-0.9-1.9-1.5c-0.5-0.5-1.1-1.2-1.5-1.9c-0.4-0.7-0.7-1.4-0.9-2.2c-0.2-0.8-0.3-1.6-0.3-2.5s0.1-1.7,0.3-2.5
	c0.2-0.8,0.5-1.5,0.9-2.2c0.4-0.7,0.9-1.3,1.5-1.9c0.5-0.5,1.2-1.1,1.9-1.5c0.7-0.4,1.4-0.7,2.2-0.9C536.2,19.6,537,19.6,537.8,19.6
	z M537.8,37.1c0.7,0,1.5-0.1,2.2-0.3c0.7-0.2,1.3-0.5,2-0.8c0.6-0.3,1.1-0.8,1.6-1.3s0.9-1,1.3-1.7c0.3-0.6,0.6-1.3,0.8-2
	c0.2-0.7,0.3-1.4,0.3-2.2c0-1.1-0.2-2.2-0.6-3.2c-0.4-1-1-1.9-1.7-2.6c-0.7-0.7-1.6-1.3-2.6-1.7c-1-0.4-2-0.7-3.2-0.7
	c-0.7,0-1.5,0.1-2.2,0.3c-0.7,0.2-1.3,0.5-2,0.8c-0.6,0.3-1.1,0.8-1.6,1.3c-0.5,0.5-0.9,1.1-1.3,1.7c-0.3,0.6-0.6,1.3-0.8,2
	c-0.2,0.7-0.3,1.4-0.3,2.2c0,0.7,0.1,1.5,0.3,2.2c0.2,0.7,0.5,1.3,0.8,2c0.3,0.6,0.7,1.1,1.3,1.7c0.5,0.5,1,0.9,1.6,1.3
	c0.6,0.3,1.2,0.6,2,0.8C536.4,36.9,537,37.1,537.8,37.1z M537.6,23.1c1.5,0,2.6,0.3,3.2,0.8c0.7,0.5,1.1,1.3,1.1,2.4
	c0,0.8-0.2,1.5-0.7,2c-0.5,0.5-1.1,0.9-2,1.1c0.1,0.1,0.3,0.2,0.4,0.3c0.1,0.1,0.2,0.3,0.3,0.5l2.9,4.2h-1.9c-0.3,0-0.5-0.1-0.6-0.3
	l-2.6-3.8c-0.1-0.1-0.1-0.2-0.3-0.3c-0.1-0.1-0.3-0.1-0.5-0.1h-1v4.5h-2V23.1H537.6z M537.4,28.6c0.9,0,1.6-0.2,2-0.5
	c0.4-0.3,0.6-0.8,0.6-1.5c0-0.3-0.1-0.6-0.1-0.8c-0.1-0.2-0.2-0.4-0.4-0.6c-0.2-0.1-0.4-0.3-0.7-0.3c-0.3-0.1-0.7-0.1-1.1-0.1H536
	v3.9H537.4z"/>
</svg>
