<?xml version="1.0" encoding="utf-8"?>
<!-- Generator: Adobe Illustrator 24.0.2, SVG Export Plug-In . SVG Version: 6.00 Build 0)  -->
<svg version="1.1" id="Capa_1" xmlns="http://www.w3.org/2000/svg" xmlns:xlink="http://www.w3.org/1999/xlink" x="0px" y="0px"
	 viewBox="0 0 337.3 65.7" style="enable-background:new 0 0 337.3 65.7;" xml:space="preserve">
<style type="text/css">
	.st0{fill:#8010AC;}
	.st1{fill:#FFFFFF;}
	.st2{fill:#606060;}
</style>
<path class="st0" d="M160.6,2H1.8v55.4h158.8V2z"/>
<path class="st1" d="M69.2,7.9l-13.9,45h-9.4L37.4,25c-0.2-0.4-0.3-0.9-0.5-1.4c-0.1-0.5-0.3-1.1-0.4-1.6c-0.1,0.6-0.3,1.1-0.4,1.6
	c-0.1,0.5-0.3,1-0.5,1.4l-8.6,27.9h-9.5L3.7,7.9h8.8c0.9,0,1.6,0.2,2.3,0.6c0.6,0.4,1,0.9,1.2,1.6l6.2,23.5c0.2,0.7,0.4,1.6,0.5,2.4
	c0.2,0.9,0.4,1.8,0.5,2.7c0.4-1.9,0.8-3.7,1.4-5.2l7.3-23.5C32,9.5,32.4,9,33.1,8.6c0.6-0.5,1.4-0.7,2.2-0.7h3.1
	c0.9,0,1.6,0.2,2.2,0.6c0.5,0.4,1,0.9,1.3,1.6l7.2,23.5c0.5,1.4,1,3.1,1.4,4.9c0.2-0.9,0.3-1.8,0.5-2.6c0.2-0.8,0.4-1.6,0.5-2.3
	l6.2-23.5c0.2-0.6,0.5-1.1,1.2-1.6c0.6-0.5,1.4-0.7,2.2-0.7H69.2z"/>
<path class="st1" d="M83.3,20.3c2.4,0,4.7,0.4,6.6,1.2c2,0.7,3.7,1.9,5.2,3.3s2.6,3.1,3.3,5.2c0.8,2,1.2,4.3,1.2,6.8
	c0,2.6-0.4,4.9-1.2,6.9c-0.8,2.1-1.9,3.8-3.3,5.2s-3.1,2.5-5.2,3.3c-2,0.8-4.2,1.2-6.6,1.2c-2.4,0-4.7-0.4-6.7-1.2s-3.8-1.9-5.2-3.3
	c-1.4-1.4-2.6-3.2-3.4-5.2c-0.8-2.1-1.2-4.3-1.2-6.9c0-2.5,0.4-4.8,1.2-6.8c0.8-2,1.9-3.8,3.4-5.2c1.4-1.4,3.2-2.5,5.2-3.3
	C78.6,20.7,80.8,20.3,83.3,20.3z M83.3,46.2c2.2,0,3.8-0.8,4.9-2.3c1-1.6,1.6-3.9,1.6-7.1c0-3.2-0.5-5.5-1.6-7
	c-1-1.5-2.7-2.3-4.9-2.3c-2.3,0-3.9,0.8-5,2.3c-1,1.5-1.6,3.9-1.6,7c0,3.2,0.5,5.5,1.6,7.1C79.3,45.4,81,46.2,83.3,46.2z"/>
<path class="st1" d="M113.3,25.8c1-1.7,2.1-3.1,3.4-4.1c1.3-1,2.8-1.5,4.4-1.5c1.4,0,2.6,0.3,3.5,1l-0.6,7c-0.1,0.5-0.3,0.7-0.5,0.9
	c-0.2,0.2-0.6,0.2-1,0.2c-0.2,0-0.4,0-0.7,0c-0.2,0-0.5,0-0.8-0.1c-0.3,0-0.6,0-0.9-0.1c-0.3,0-0.6,0-0.8,0c-1.4,0-2.5,0.4-3.3,1.1
	c-0.8,0.7-1.5,1.8-2.1,3.1v19.5h-9.6v-32h5.7c0.5,0,0.9,0,1.2,0.1c0.3,0.1,0.6,0.2,0.8,0.4c0.2,0.2,0.4,0.4,0.5,0.7
	c0.1,0.3,0.2,0.6,0.3,1L113.3,25.8z"/>
<path class="st1" d="M137.5,6.7v25.9h1.4c0.6,0,1-0.1,1.4-0.2c0.3-0.2,0.6-0.5,0.9-0.9l6.1-9c0.4-0.5,0.8-0.9,1.3-1.2
	c0.5-0.2,1.1-0.4,1.8-0.4h8.8l-8.3,11.4c-0.8,1-1.7,1.9-2.8,2.5c0.5,0.3,0.9,0.7,1.3,1.2c0.4,0.5,0.7,1,1.1,1.6l9,15.3h-8.7
	c-0.7,0-1.3-0.1-1.9-0.4c-0.5-0.2-0.9-0.7-1.3-1.2l-6.1-11.3c-0.3-0.5-0.6-0.9-0.9-1c-0.3-0.2-0.8-0.2-1.4-0.2h-1.9v14.2h-9.6V6.7
	H137.5z"/>
<path class="st2" d="M163.3,26.5c1.6-1.6,3.3-2.8,5.1-3.6c1.8-0.8,3.8-1.2,6-1.2c1.6,0,3.1,0.2,4.3,0.8c1.2,0.5,2.3,1.3,3.1,2.3
	c0.8,1,1.4,2.1,1.9,3.5s0.6,2.9,0.6,4.7v20h-1.2c-0.6,0-1-0.3-1.2-0.9l-0.4-4c-0.8,0.8-1.7,1.6-2.5,2.2c-0.8,0.7-1.7,1.2-2.6,1.6
	c-0.9,0.5-1.9,0.8-2.9,1c-1,0.2-2.2,0.4-3.5,0.4c-1,0-2.1-0.2-3.1-0.5c-1-0.3-1.9-0.8-2.6-1.4c-0.8-0.6-1.4-1.4-1.9-2.5
	c-0.5-1-0.7-2.2-0.7-3.6c0-1.3,0.4-2.5,1.1-3.6c0.7-1.1,1.9-2.1,3.5-2.9c1.6-0.8,3.6-1.5,6.1-2c2.5-0.5,5.4-0.8,8.9-0.9v-3.2
	c0-2.8-0.6-5-1.9-6.6c-1.2-1.5-3.1-2.3-5.4-2.3c-1.5,0-2.8,0.2-3.8,0.6c-1,0.4-1.9,0.9-2.6,1.4s-1.3,0.9-1.8,1.4
	c-0.5,0.4-0.8,0.6-1.2,0.6c-0.2,0-0.4,0-0.5-0.2c-0.1-0.1-0.2-0.2-0.4-0.4L163.3,26.5z M181.4,38c-2.9,0.1-5.4,0.3-7.5,0.7
	c-2.1,0.4-3.8,0.9-5.2,1.5c-1.4,0.6-2.4,1.4-3.1,2.2c-0.7,0.9-1,1.8-1,2.9c0,1,0.2,1.9,0.5,2.7c0.3,0.7,0.8,1.4,1.4,1.9
	s1.2,0.8,2,1.1c0.7,0.2,1.5,0.3,2.3,0.3c1.2,0,2.3-0.1,3.3-0.4c1-0.2,1.9-0.6,2.8-1.1c0.9-0.5,1.6-1,2.4-1.6
	c0.7-0.6,1.5-1.3,2.2-2.1L181.4,38L181.4,38z"/>
<path class="st2" d="M196.8,27.5c1.4-1.8,3-3.2,4.9-4.2s3.9-1.6,6.2-1.6c1.7,0,3.2,0.2,4.5,0.8c1.3,0.5,2.3,1.3,3.2,2.3
	c0.8,1,1.5,2.2,1.9,3.6c0.4,1.4,0.7,3,0.7,4.8v19.6h-3V33.2c0-2.9-0.7-5.2-2-6.8c-1.3-1.6-3.3-2.5-6-2.5c-2,0-3.9,0.5-5.6,1.5
	c-1.7,1-3.3,2.4-4.7,4.2v23.1h-3V22.1h1.6c0.5,0,0.8,0.2,0.9,0.8L196.8,27.5z"/>
<path class="st2" d="M251.8,7.9v44.9h-1.6c-0.5,0-0.8-0.2-0.9-0.8l-0.3-4.9c-1.4,1.9-2.9,3.3-4.7,4.4c-1.8,1.1-3.8,1.6-6.1,1.6
	c-3.8,0-6.7-1.3-8.8-3.9c-2.1-2.6-3.1-6.5-3.1-11.7c0-2.2,0.3-4.3,0.9-6.3c0.6-1.9,1.4-3.6,2.6-5.1c1.1-1.4,2.5-2.6,4.2-3.4
	c1.6-0.8,3.5-1.2,5.7-1.2c2.1,0,3.9,0.4,5.4,1.2c1.5,0.7,2.8,1.9,4,3.4V7.9H251.8z M248.9,28.7c-1.2-1.8-2.5-3-3.9-3.8
	c-1.4-0.7-3-1.1-4.9-1.1c-1.8,0-3.4,0.3-4.7,1c-1.4,0.7-2.5,1.6-3.4,2.8c-0.9,1.2-1.6,2.6-2.1,4.3c-0.5,1.7-0.7,3.5-0.7,5.5
	c0,4.6,0.8,7.9,2.5,10.1c1.7,2.1,4.1,3.2,7.3,3.2c2,0,3.9-0.5,5.5-1.6c1.6-1,3.1-2.5,4.4-4.4L248.9,28.7L248.9,28.7z"/>
<path class="st2" d="M264.9,27.5c1.3-1.8,2.9-3.2,4.7-4.3c1.8-1,3.9-1.6,6.2-1.6c1.9,0,3.5,0.3,5,1c1.4,0.7,2.7,1.6,3.7,2.9
	c1,1.3,1.8,2.8,2.3,4.7c0.5,1.9,0.8,4,0.8,6.3c0,2.5-0.3,4.7-0.9,6.8c-0.6,2.1-1.5,3.8-2.6,5.2c-1.2,1.4-2.6,2.6-4.2,3.4
	c-1.6,0.8-3.5,1.2-5.6,1.2c-2.2,0-4-0.4-5.6-1.2c-1.5-0.8-2.8-2.1-4-3.7l-0.2,3.8c0,0.5-0.3,0.8-0.8,0.8h-1.8V7.9h3L264.9,27.5
	L264.9,27.5z M264.9,46.1c1.2,1.8,2.5,3,3.9,3.7c1.4,0.7,3,1.1,4.8,1.1c1.8,0,3.4-0.3,4.8-1c1.4-0.7,2.5-1.6,3.4-2.8
	c0.9-1.2,1.6-2.7,2.1-4.5c0.5-1.7,0.7-3.7,0.7-5.9c0-4.2-0.8-7.4-2.5-9.6c-1.7-2.1-4-3.2-7.1-3.2c-2.2,0-4.1,0.5-5.7,1.6
	c-1.6,1-3.1,2.5-4.4,4.4V46.1z"/>
<path class="st2" d="M320,22.1l-17.6,40.6c-0.1,0.3-0.3,0.5-0.5,0.7c-0.2,0.2-0.5,0.3-0.9,0.3H299l5.4-12l-13-29.6h2.4
	c0.3,0,0.5,0.1,0.7,0.2c0.2,0.2,0.3,0.3,0.4,0.5l10.3,23.9c0.1,0.3,0.2,0.6,0.3,0.9c0.1,0.3,0.2,0.7,0.2,1c0.1-0.3,0.2-0.7,0.3-1
	c0.1-0.3,0.2-0.6,0.4-0.9l10.2-23.9c0.1-0.2,0.2-0.4,0.4-0.5c0.2-0.1,0.4-0.2,0.6-0.2H320z"/>
<path class="st2" d="M329.4,11.3c0.5,0,1,0.1,1.5,0.2c0.5,0.1,0.9,0.3,1.4,0.6c0.4,0.2,0.8,0.5,1.2,0.9c0.3,0.3,0.7,0.7,0.9,1.2
	c0.2,0.4,0.5,0.9,0.6,1.4c0.1,0.5,0.2,1,0.2,1.5c0,0.5-0.1,1-0.2,1.5c-0.1,0.5-0.3,0.9-0.6,1.4c-0.2,0.4-0.5,0.8-0.9,1.2
	c-0.3,0.3-0.7,0.7-1.2,0.9c-0.4,0.2-0.9,0.5-1.4,0.6c-0.5,0.1-1,0.2-1.5,0.2c-0.5,0-1-0.1-1.5-0.2c-0.5-0.1-0.9-0.3-1.4-0.6
	c-0.4-0.2-0.8-0.5-1.2-0.9c-0.3-0.3-0.7-0.7-0.9-1.2c-0.2-0.4-0.5-0.9-0.6-1.4c-0.1-0.5-0.2-1-0.2-1.5c0-0.5,0.1-1,0.2-1.5
	c0.1-0.5,0.3-0.9,0.6-1.4c0.2-0.4,0.5-0.8,0.9-1.2c0.3-0.3,0.7-0.7,1.2-0.9c0.4-0.2,0.9-0.5,1.4-0.6
	C328.4,11.4,328.9,11.3,329.4,11.3z M329.4,22c0.5,0,0.9,0,1.3-0.2c0.4-0.1,0.8-0.3,1.2-0.5c0.4-0.2,0.7-0.5,1-0.8
	c0.3-0.3,0.5-0.6,0.8-1c0.2-0.4,0.4-0.8,0.5-1.2c0.1-0.4,0.2-0.9,0.2-1.3c0-0.7-0.1-1.4-0.4-2c-0.2-0.6-0.6-1.2-1.1-1.6
	c-0.5-0.5-1-0.8-1.6-1.1c-0.6-0.2-1.2-0.4-1.9-0.4c-0.5,0-0.9,0-1.3,0.2c-0.4,0.1-0.8,0.3-1.2,0.5c-0.4,0.2-0.7,0.5-1,0.8
	c-0.3,0.3-0.5,0.7-0.8,1c-0.2,0.4-0.4,0.8-0.5,1.2c-0.1,0.4-0.2,0.9-0.2,1.4c0,0.5,0,0.9,0.2,1.3c0.1,0.4,0.3,0.8,0.5,1.2
	c0.2,0.4,0.5,0.7,0.8,1c0.3,0.3,0.6,0.6,1,0.8c0.4,0.2,0.7,0.4,1.2,0.5C328.5,22,328.9,22,329.4,22z M329.3,13.5
	c0.9,0,1.6,0.2,2,0.5c0.4,0.3,0.7,0.8,0.7,1.4c0,0.5-0.1,0.9-0.4,1.2c-0.3,0.3-0.7,0.6-1.2,0.7c0.1,0,0.2,0.1,0.2,0.2
	c0.1,0.1,0.1,0.2,0.2,0.3l1.8,2.6h-1.2c-0.2,0-0.3-0.1-0.4-0.2l-1.6-2.3c0-0.1-0.1-0.1-0.2-0.2c-0.1,0-0.2,0-0.3,0h-0.6v2.8h-1.2v-7
	H329.3z M329.2,16.8c0.6,0,1-0.1,1.2-0.3c0.2-0.2,0.4-0.5,0.4-0.9c0-0.2,0-0.4-0.1-0.5c0-0.1-0.1-0.2-0.2-0.4
	c-0.1-0.1-0.2-0.2-0.5-0.2c-0.2,0-0.4-0.1-0.7-0.1h-1v2.4H329.2z"/>
</svg>
