<?xml version="1.0" encoding="utf-8"?>
<!-- Generator: Adobe Illustrator 24.0.2, SVG Export Plug-In . SVG Version: 6.00 Build 0)  -->
<svg version="1.1" id="Capa_1" xmlns="http://www.w3.org/2000/svg" xmlns:xlink="http://www.w3.org/1999/xlink" x="0px" y="0px"
	 viewBox="0 0 25 25" style="enable-background:new 0 0 25 25;" xml:space="preserve">
<style type="text/css">
	.st0{fill:#8010AC;}
</style>
<g>
	<path class="st0" d="M20.3,24.5c-0.1,0-0.2,0-0.3,0c-3.4-0.4-6.7-1.5-9.6-3.4c-2.7-1.7-5-4-6.6-6.6c-1.9-2.9-3-6.2-3.4-9.6
		c0-0.5,0-0.9,0.2-1.3c0.1-0.4,0.4-0.8,0.7-1.1c0.3-0.3,0.7-0.6,1.1-0.8c0.4-0.2,0.8-0.3,1.3-0.3h3.2c0.7,0,1.5,0.3,2.1,0.8
		c0.6,0.5,1,1.2,1.1,2C10,5.1,10.2,6,10.5,6.9c0.2,0.6,0.3,1.2,0.1,1.8c-0.1,0.6-0.4,1.1-0.8,1.6L9.1,11c1.2,1.9,2.9,3.6,4.8,4.8
		l0.8-0.8c0.4-0.4,1-0.7,1.6-0.8c0.6-0.1,1.2-0.1,1.8,0.1c0.9,0.3,1.8,0.6,2.7,0.7c0.8,0.1,1.5,0.5,2,1.1c0.5,0.6,0.8,1.3,0.7,2.1
		v3.1c0,0.4-0.1,0.9-0.3,1.3c-0.2,0.4-0.4,0.8-0.8,1.1c-0.3,0.3-0.7,0.5-1.1,0.7C21,24.5,20.6,24.5,20.3,24.5z M6.7,3.5
		C6.7,3.5,6.7,3.5,6.7,3.5H3.5c-0.1,0-0.3,0-0.4,0.1C3,3.7,2.9,3.8,2.8,3.9C2.7,4,2.6,4.1,2.5,4.3c0,0.1-0.1,0.3-0.1,0.4
		c0.3,3.1,1.4,6.1,3.1,8.7c1.5,2.4,3.6,4.5,6,6c2.6,1.7,5.6,2.7,8.6,3.1c0.1,0,0.3,0,0.4-0.1c0.1,0,0.3-0.1,0.4-0.2
		c0.1-0.1,0.2-0.2,0.3-0.4c0.1-0.1,0.1-0.3,0.1-0.4v-3.2c0,0,0,0,0,0c0-0.3-0.1-0.5-0.3-0.7c-0.2-0.2-0.4-0.3-0.7-0.4
		c-1.1-0.1-2.1-0.4-3.2-0.8c-0.2-0.1-0.4-0.1-0.6,0c-0.2,0-0.4,0.1-0.5,0.3l-1.3,1.3c-0.3,0.3-0.9,0.4-1.3,0.2
		c-2.8-1.6-5.1-3.9-6.7-6.7c-0.2-0.4-0.2-0.9,0.2-1.3l1.3-1.3c0.1-0.1,0.2-0.3,0.3-0.5c0-0.2,0-0.4,0-0.6c-0.4-1-0.7-2.1-0.8-3.2
		c0-0.2-0.2-0.5-0.4-0.6C7.2,3.6,7,3.5,6.7,3.5z M19.2,10.9c-0.4,0-0.7-0.2-0.9-0.6c-1-1.9-1.7-2.7-3.7-3.7
		c-0.5-0.3-0.7-0.9-0.4-1.4c0.3-0.5,0.9-0.7,1.4-0.4C17.9,6,19,7.1,20.2,9.3c0.3,0.5,0.1,1.2-0.4,1.4C19.6,10.8,19.4,10.9,19.2,10.9
		z M23.5,10.9c-0.3,0-0.7-0.2-0.9-0.5c-1.4-2-2.5-3.4-3.6-4.5c-1.3-1.3-2.7-2.3-4.5-3.6c-0.5-0.3-0.6-1-0.3-1.5
		c0.3-0.5,1-0.6,1.5-0.3c2,1.3,3.4,2.4,4.8,3.8c1.2,1.2,2.4,2.7,3.8,4.8c0.3,0.5,0.2,1.1-0.3,1.5C23.9,10.8,23.7,10.9,23.5,10.9z"/>
</g>
</svg>
