<?xml version="1.0" encoding="utf-8"?>
<!-- Generator: Adobe Illustrator 24.0.2, SVG Export Plug-In . SVG Version: 6.00 Build 0)  -->
<svg version="1.1" id="Capa_1" xmlns="http://www.w3.org/2000/svg" xmlns:xlink="http://www.w3.org/1999/xlink" x="0px" y="0px"
	 viewBox="0 0 25 25" style="enable-background:new 0 0 25 25;" xml:space="preserve">
<style type="text/css">
	.st0{fill-rule:evenodd;clip-rule:evenodd;fill:#8010AC;}
</style>
<path class="st0" d="M12.5,2.5c-2.1,0-4.2,0.8-5.7,2.3c-1.5,1.5-2.3,3.5-2.3,5.7c0,3.1,2,6.1,4.2,8.4c1.1,1.1,2.2,2.1,3,2.7
	c0.3,0.2,0.6,0.4,0.8,0.6c0.2-0.2,0.5-0.4,0.8-0.6c0.8-0.7,1.9-1.6,3-2.7c2.2-2.3,4.2-5.3,4.2-8.4c0-2.1-0.8-4.2-2.3-5.7
	C16.7,3.3,14.6,2.5,12.5,2.5z M12.5,23.5c-0.6,0.8-0.6,0.8-0.6,0.8l0,0l0,0l0,0c0,0,0,0-0.1-0.1c-0.1,0-0.2-0.1-0.3-0.2
	c-0.3-0.2-0.6-0.5-1.1-0.8c-0.9-0.7-2-1.7-3.2-2.9c-2.3-2.4-4.8-5.9-4.8-9.8c0-2.7,1.1-5.2,2.9-7.1c1.9-1.9,4.4-2.9,7.1-2.9
	c2.7,0,5.2,1.1,7.1,2.9c1.9,1.9,2.9,4.4,2.9,7.1c0,3.9-2.5,7.4-4.8,9.8c-1.2,1.2-2.3,2.2-3.2,2.9c-0.4,0.3-0.8,0.6-1.1,0.8
	c-0.1,0.1-0.2,0.2-0.3,0.2c0,0-0.1,0-0.1,0.1l0,0l0,0l0,0C13.1,24.3,13.1,24.3,12.5,23.5z M12.5,23.5l0.6,0.8
	c-0.3,0.2-0.8,0.2-1.1,0L12.5,23.5z M12.5,8.5c-1.1,0-2,0.9-2,2c0,1.1,0.9,2,2,2c1.1,0,2-0.9,2-2C14.5,9.4,13.6,8.5,12.5,8.5z
	 M8.5,10.5c0-2.2,1.8-4,4-4c2.2,0,4,1.8,4,4c0,2.2-1.8,4-4,4C10.3,14.5,8.5,12.7,8.5,10.5z"/>
</svg>
